<svg width="34" height="20" viewBox="0 0 34 20" fill="none" xmlns="http://www.w3.org/2000/svg">
<path d="M14.0055 19V20H6.00236V19H4.00158V18H3.00118V17H2.00079V16H1.00039V13H0V7H1.00039V5H2.00079V3H3.00118V2H4.00158V1H6.00236V0H13.0051V1H15.0059V2H16.0063V0H17.0067V7H16.0063V4H15.0059V3H14.0055V2H12.0047V1H8.00315V2H6.00236V3H5.00197V5H4.00158V9H3.00118V10H4.00158V15H5.00197V16H6.00236V17H7.00276V18H9.00355V19H12.0047V18H15.0059V17H16.0063V16H15.0059V12H14.0055V11H12.0047V10H20.0079V11H18.0071V20H17.0067V19H14.0055Z" fill="black"/>
<path d="M34 15V20H21.9953V18H22.9957V17H23.9961V16H24.9965V14H25.9968V13H26.9972V12H27.9976V10H28.998V9H29.9984V7H30.9988V4H29.9984V2H28.998V1H24.9965V2H23.9961V6H21.9953V2H22.9957V1H24.9965V0H30.9988V1H32.9996V3H34V6H32.9996V7H31.9992V9H30.9988V10H29.9984V11H28.998V12H27.9976V14H26.9972V15H25.9968V16H24.9965V17H23.9961V18H31.9992V17H32.9996V15H34Z" fill="black"/>
</svg>
